<?xml version="1.0" standalone="no"?>
<!DOCTYPE svg PUBLIC "-//W3C//DTD SVG 20010904//EN"
 "http://www.w3.org/TR/2001/REC-SVG-20010904/DTD/svg10.dtd">
<svg version="1.0" xmlns="http://www.w3.org/2000/svg"
 width="399.000000pt" height="399.000000pt" viewBox="0 0 399.000000 399.000000"
 preserveAspectRatio="xMidYMid meet">
<metadata>
Created by potrace 1.11, written by Peter Selinger 2001-2013
</metadata>
<g transform="translate(0.000000,399.000000) scale(0.100000,-0.100000)"
fill="#000000" stroke="none">
<path d="M1788 3649 c-2 -4 -25 -9 -53 -12 -27 -3 -60 -8 -72 -11 -35 -9 -66
-17 -90 -22 -22 -4 -167 -53 -213 -72 -14 -5 -28 -10 -32 -11 -48 -12 -308
-173 -392 -243 -232 -193 -419 -465 -516 -748 -12 -36 -24 -72 -26 -80 -2 -8
-8 -35 -15 -60 -32 -129 -46 -266 -43 -424 1 -88 5 -172 8 -186 3 -13 8 -42
11 -65 4 -22 18 -83 31 -135 14 -52 26 -102 27 -110 1 -8 5 -17 8 -20 6 -5 47
-113 52 -135 1 -5 4 -12 7 -15 3 -3 21 -34 39 -70 49 -94 55 -103 69 -118 7
-7 10 -17 7 -22 -3 -4 2 -10 10 -14 8 -3 15 -12 15 -20 0 -8 3 -16 8 -18 19
-8 73 -89 66 -99 -4 -8 -3 -9 4 -5 6 4 19 -3 29 -15 10 -12 56 -61 103 -108
47 -47 84 -90 82 -94 -1 -5 2 -6 6 -3 5 3 20 -3 33 -14 37 -31 42 -34 79 -60
19 -13 37 -27 40 -30 3 -3 17 -11 32 -19 16 -8 28 -18 28 -23 0 -5 5 -6 10 -3
6 3 10 1 10 -4 0 -6 3 -10 8 -9 13 2 42 -14 37 -21 -2 -4 2 -8 9 -8 24 0 127
-54 133 -70 5 -12 7 -12 14 -1 8 11 10 11 18 0 4 -8 11 -13 15 -13 29 4 38 0
31 -17 -4 -12 -3 -14 5 -6 8 8 25 7 63 -4 29 -8 54 -18 57 -21 3 -4 12 -6 20
-6 8 1 29 -3 45 -8 17 -5 36 -9 43 -10 7 0 10 -7 7 -16 -3 -11 0 -10 10 3 8
11 15 15 15 10 0 -10 11 -12 75 -16 19 -1 35 -5 35 -8 0 -3 27 -5 60 -5 33 0
60 -2 60 -5 0 -6 49 -5 60 0 6 3 8 3 44 -4 14 -3 26 -1 26 4 0 5 13 5 30 0 19
-5 28 -5 25 1 -4 5 -1 9 4 9 10 0 15 -14 12 -32 0 -5 4 -8 10 -8 6 0 8 8 5 18
-4 13 -1 19 9 19 8 0 15 -5 15 -11 0 -6 5 -4 10 4 5 8 10 11 10 5 0 -5 5 -3
10 5 7 11 10 11 10 2 0 -7 5 -10 11 -6 14 9 64 17 102 17 15 0 27 3 27 7 0 4
6 7 13 7 18 1 60 10 81 19 11 4 21 2 27 -7 7 -11 9 -11 9 4 0 9 4 17 9 17 5 0
17 3 27 7 11 4 15 3 10 -5 -3 -6 -2 -13 4 -17 6 -4 7 -11 4 -17 -5 -7 -2 -8 5
-3 9 5 9 11 3 17 -6 6 -8 17 -5 25 4 11 8 10 19 -4 12 -15 13 -15 8 -2 -3 10
0 20 7 25 8 5 10 3 5 -7 -4 -8 -1 -6 8 5 8 10 20 15 26 11 8 -5 6 -11 -6 -19
-13 -10 -14 -15 -4 -21 8 -5 11 -4 7 2 -4 6 0 14 9 17 8 3 13 10 9 16 -7 11
45 39 63 33 6 -3 12 0 12 5 0 16 31 23 45 12 11 -9 12 -6 8 11 -5 16 -3 20 7
14 7 -4 15 -3 19 2 11 16 96 60 108 56 6 -2 15 1 19 8 5 8 3 9 -6 4 -9 -5 -11
-4 -6 3 4 7 14 12 22 12 8 0 14 5 14 11 0 6 8 9 19 6 12 -3 18 1 17 12 -1 9 6
15 16 15 10 -1 16 2 13 6 -3 5 -1 11 5 15 5 3 10 1 10 -5 0 -5 18 2 40 16 22
15 38 30 35 34 -3 4 4 17 15 30 14 16 25 20 42 15 22 -7 22 -6 4 7 -13 10 -15
17 -8 22 7 4 12 1 12 -6 0 -7 9 2 20 20 11 17 25 32 30 32 6 0 8 5 4 11 -3 6
6 3 22 -7 16 -10 26 -14 22 -9 -4 4 -2 15 5 23 8 10 8 13 1 9 -7 -4 -15 0 -18
9 -3 8 -2 12 4 9 6 -3 10 -2 10 3 0 5 15 26 33 45 53 59 67 77 60 77 -4 0 5
12 19 28 14 15 31 37 38 50 6 13 17 21 25 18 7 -2 16 2 19 10 3 9 10 13 15 9
5 -3 12 -1 15 4 7 10 -20 9 -30 -2 -16 -15 -26 -6 -12 11 8 9 21 32 28 51 7
18 30 49 49 69 29 28 31 32 11 22 -24 -13 -25 -12 -7 7 9 11 14 23 10 28 -5 4
0 5 9 2 14 -5 17 -2 14 16 -1 12 7 44 19 72 12 27 28 71 36 98 7 26 17 47 21
47 5 0 6 11 4 25 -3 13 0 27 5 31 5 3 7 10 4 15 -4 5 -2 9 2 9 5 0 14 9 21 20
7 11 9 20 5 19 -25 -4 -24 4 2 16 19 10 22 13 8 9 -13 -3 -23 -1 -23 5 0 6 5
11 10 11 6 0 10 5 10 11 0 5 -5 7 -10 4 -17 -10 -11 4 10 25 22 22 26 40 9 40
-5 0 -8 -4 -5 -8 2 -4 0 -14 -5 -22 -6 -11 -8 -6 -7 18 1 19 5 35 9 38 4 2 5
14 3 27 -4 20 -4 21 5 2 9 -19 10 -19 10 3 1 12 -2 22 -7 22 -4 0 -7 13 -7 30
-1 26 2 29 23 25 14 -2 21 -1 17 3 -3 4 -11 8 -16 8 -30 4 -31 7 -4 14 26 7
27 8 6 9 -21 1 -23 5 -18 31 4 16 2 32 -3 35 -5 3 -5 18 0 33 4 16 4 36 -2 45
-6 11 -5 17 2 17 7 0 8 6 0 19 -14 28 -13 54 3 45 6 -4 9 -4 5 1 -4 4 -2 15 5
24 11 14 10 14 -5 2 -10 -7 -18 -10 -19 -5 0 5 -2 17 -4 26 -2 12 2 15 13 11
15 -4 15 -3 0 9 -9 8 -19 25 -21 39 -3 13 -8 44 -13 69 -4 25 -8 48 -8 52 -1
3 -4 10 -8 14 -4 4 -2 14 5 22 9 12 9 14 0 9 -14 -9 -29 34 -19 58 3 8 2 14
-2 14 -18 -3 -22 3 -12 20 7 14 7 22 -2 27 -7 4 -8 3 -4 -4 4 -7 2 -12 -5 -12
-6 0 -9 8 -6 20 3 11 1 20 -4 20 -5 0 -9 9 -9 20 0 11 -5 20 -12 20 -6 0 -9 3
-5 6 3 4 -5 27 -18 53 -14 25 -25 52 -25 58 0 7 -4 13 -9 13 -5 0 -13 10 -17
23 -3 12 -14 30 -22 40 -14 16 -14 19 -2 27 13 8 13 10 -1 10 -14 0 -69 71
-69 90 0 5 -3 10 -7 12 -17 7 -63 77 -60 90 2 7 2 10 0 6 -3 -5 -10 -8 -16 -8
-5 0 -7 3 -4 7 4 3 -2 13 -13 20 -11 8 -18 19 -15 24 4 5 -1 9 -9 9 -19 0 -40
36 -30 52 5 7 3 8 -5 4 -14 -9 -53 22 -45 35 3 5 -2 9 -10 9 -8 0 -34 18 -56
40 -22 22 -45 40 -51 40 -6 0 -7 5 -4 10 3 6 0 10 -8 10 -8 0 -28 13 -45 29
-16 16 -33 27 -36 24 -3 -4 -6 1 -6 9 0 9 -8 15 -17 14 -10 0 -17 4 -16 11 2
7 -4 10 -12 7 -8 -4 -15 -1 -15 7 0 7 -3 10 -6 6 -8 -8 -33 16 -27 25 2 4 -3
5 -11 2 -9 -3 -16 -1 -16 6 0 6 -4 8 -10 5 -5 -3 -10 -1 -10 4 0 6 -5 11 -12
11 -15 0 -122 52 -126 62 -2 5 -8 6 -13 2 -5 -3 -9 0 -9 7 0 7 -3 10 -6 6 -3
-3 -29 3 -58 15 -47 19 -69 25 -89 27 -5 1 -5 6 -1 13 4 7 3 8 -4 4 -6 -4 -37
0 -69 8 -32 8 -74 18 -93 21 -19 3 -48 8 -65 11 -16 3 -43 8 -60 11 -44 7
-415 9 -417 2z m1427 -2809 c3 -5 1 -10 -4 -10 -6 0 -11 5 -11 10 0 6 2 10 4
10 3 0 8 -4 11 -10z m-172 -155 c-10 -7 -20 -12 -21 -10 -7 7 23 33 31 28 5
-3 0 -11 -10 -18z"/>
<path d="M3336 3017 c3 -10 9 -15 12 -12 3 3 0 11 -7 18 -10 9 -11 8 -5 -6z"/>
<path d="M3426 2868 c3 -5 10 -6 15 -3 13 9 11 12 -6 12 -8 0 -12 -4 -9 -9z"/>
<path d="M3475 2789 c-4 -6 -4 -13 -1 -16 3 -4 6 -1 6 6 0 7 5 9 12 5 7 -4 8
-3 4 4 -9 15 -13 15 -21 1z"/>
<path d="M3519 2743 c-13 -16 -12 -17 4 -4 16 13 21 21 13 21 -2 0 -10 -8 -17
-17z"/>
<path d="M3515 2690 c3 -5 8 -10 11 -10 2 0 4 5 4 10 0 6 -5 10 -11 10 -5 0
-7 -4 -4 -10z"/>
<path d="M3547 2649 c7 -7 15 -10 18 -7 3 3 -2 9 -12 12 -14 6 -15 5 -6 -5z"/>
<path d="M3595 2560 c10 -11 20 -20 23 -20 3 0 -3 9 -13 20 -10 11 -20 20 -23
20 -3 0 3 -9 13 -20z"/>
<path d="M3630 2509 c0 -5 5 -7 10 -4 6 3 10 8 10 11 0 2 -4 4 -10 4 -5 0 -10
-5 -10 -11z"/>
<path d="M3634 2429 c2 -13 -2 -31 -8 -39 -9 -13 -9 -13 6 -2 9 7 15 22 13 34
-6 30 -16 37 -11 7z"/>
<path d="M3630 2352 c0 -5 7 -9 15 -9 8 0 15 4 15 9 0 4 -7 8 -15 8 -8 0 -15
-4 -15 -8z"/>
<path d="M3652 2321 c-11 -7 -11 -9 0 -14 9 -3 15 1 15 9 0 8 -1 14 -1 14 -1
0 -7 -4 -14 -9z"/>
<path d="M3650 2280 c-9 -6 -10 -10 -3 -10 6 0 15 5 18 10 8 12 4 12 -15 0z"/>
<path d="M3690 2209 c0 -5 5 -7 10 -4 6 3 10 8 10 11 0 2 -4 4 -10 4 -5 0 -10
-5 -10 -11z"/>
<path d="M3686 2172 c-3 -5 1 -9 9 -9 8 0 12 4 9 9 -3 4 -7 8 -9 8 -2 0 -6 -4
-9 -8z"/>
<path d="M3668 2143 c7 -3 16 -2 19 1 4 3 -2 6 -13 5 -11 0 -14 -3 -6 -6z"/>
<path d="M3700 2110 c-9 -6 -10 -10 -3 -10 6 0 15 5 18 10 8 12 4 12 -15 0z"/>
<path d="M3675 2049 c-11 -16 -1 -19 13 -3 7 8 8 14 3 14 -5 0 -13 -5 -16 -11z"/>
<path d="M3719 2023 c-13 -16 -12 -17 4 -4 9 7 17 15 17 17 0 8 -8 3 -21 -13z"/>
<path d="M3670 2006 c7 -7 13 -7 20 0 6 6 3 10 -10 10 -13 0 -16 -4 -10 -10z"/>
<path d="M3696 1992 c-2 -4 -1 -14 4 -22 7 -11 9 -9 7 8 -1 24 -3 26 -11 14z"/>
<path d="M3666 1877 c3 -10 9 -15 12 -12 3 3 0 11 -7 18 -10 9 -11 8 -5 -6z"/>
<path d="M3691 1874 c0 -11 3 -14 6 -6 3 7 2 16 -1 19 -3 4 -6 -2 -5 -13z"/>
<path d="M3686 1833 c-6 -14 -5 -15 5 -6 7 7 10 15 7 18 -3 3 -9 -2 -12 -12z"/>
<path d="M3670 1791 c0 -6 4 -13 10 -16 6 -3 7 1 4 9 -7 18 -14 21 -14 7z"/>
<path d="M3690 1729 c0 -5 5 -7 10 -4 6 3 10 8 10 11 0 2 -4 4 -10 4 -5 0 -10
-5 -10 -11z"/>
<path d="M3660 1716 c0 -2 7 -7 16 -10 8 -3 12 -2 9 4 -6 10 -25 14 -25 6z"/>
<path d="M3651 1584 c0 -11 3 -14 6 -6 3 7 2 16 -1 19 -3 4 -6 -2 -5 -13z"/>
<path d="M3622 1555 c6 -14 15 -25 20 -25 5 0 1 11 -8 25 -9 14 -18 25 -20 25
-2 0 2 -11 8 -25z"/>
<path d="M3606 1508 c3 -4 9 -8 15 -8 5 0 9 4 9 8 0 5 -7 9 -15 9 -8 0 -12 -4
-9 -9z"/>
<path d="M3591 1472 c-14 -26 -14 -43 0 -19 9 15 13 16 27 5 16 -12 16 -11 2
7 -8 11 -15 22 -16 23 -1 2 -7 -5 -13 -16z"/>
<path d="M3606 1425 c4 -8 8 -15 10 -15 2 0 4 7 4 15 0 8 -4 15 -10 15 -5 0
-7 -7 -4 -15z"/>
<path d="M3569 1413 c-8 -9 -9 -14 -2 -10 7 5 13 -1 16 -15 3 -14 4 -11 4 10
-1 37 -1 37 -18 15z"/>
<path d="M3555 1381 c-3 -5 -2 -12 3 -15 5 -3 9 1 9 9 0 17 -3 19 -12 6z"/>
<path d="M3547 1349 c7 -7 15 -10 18 -7 3 3 -2 9 -12 12 -14 6 -15 5 -6 -5z"/>
<path d="M3536 1327 c3 -10 9 -15 12 -12 3 3 0 11 -7 18 -10 9 -11 8 -5 -6z"/>
<path d="M3530 1271 c0 -9 38 -12 44 -3 2 4 -7 8 -20 8 -13 1 -24 -1 -24 -5z"/>
<path d="M3517 1243 c-10 -9 -9 -23 1 -23 5 0 9 7 9 15 0 17 -1 18 -10 8z"/>
<path d="M3471 1206 c-9 -10 -9 -16 -1 -21 13 -8 42 14 34 26 -8 13 -20 11
-33 -5z m24 -6 c-3 -5 -11 -10 -16 -10 -6 0 -7 5 -4 10 3 6 11 10 16 10 6 0 7
-4 4 -10z"/>
<path d="M3450 1171 c0 -5 5 -13 10 -16 6 -3 10 -2 10 4 0 5 -4 13 -10 16 -5
3 -10 2 -10 -4z"/>
<path d="M3493 1155 c0 -8 4 -15 9 -15 4 0 8 4 8 9 0 6 -4 12 -8 15 -5 3 -9
-1 -9 -9z"/>
<path d="M3427 1076 c-4 -10 -1 -13 8 -9 8 3 12 9 9 14 -7 12 -11 11 -17 -5z"/>
<path d="M3390 1051 c0 -6 4 -12 8 -15 5 -3 9 1 9 9 0 8 -4 15 -9 15 -4 0 -8
-4 -8 -9z"/>
<path d="M3370 1030 c0 -5 5 -10 11 -10 5 0 7 5 4 10 -3 6 -8 10 -11 10 -2 0
-4 -4 -4 -10z"/>
<path d="M3400 1010 c-12 -7 -10 -9 7 -7 12 0 19 5 17 9 -6 10 -6 10 -24 -2z"/>
<path d="M3340 1000 c-18 -12 -2 -12 25 0 13 6 15 9 5 9 -8 0 -22 -4 -30 -9z"/>
<path d="M3317 956 c-4 -11 -5 -21 -2 -24 3 -3 5 0 5 8 0 9 3 10 13 1 10 -8
14 -7 14 4 0 8 -4 12 -8 9 -4 -2 -9 1 -11 8 -3 7 -7 5 -11 -6z"/>
<path d="M3290 910 c0 -5 5 -10 10 -10 6 0 10 5 10 10 0 6 -4 10 -10 10 -5 0
-10 -4 -10 -10z"/>
<path d="M3268 883 c7 -3 16 -2 19 1 4 3 -2 6 -13 5 -11 0 -14 -3 -6 -6z"/>
<path d="M3264 854 c-18 -14 -18 -15 4 -4 12 6 22 13 22 15 0 8 -5 6 -26 -11z"/>
<path d="M3188 803 c7 -3 16 -2 19 1 4 3 -2 6 -13 5 -11 0 -14 -3 -6 -6z"/>
<path d="M3153 751 c0 -11 5 -18 9 -15 4 3 5 11 1 19 -7 21 -12 19 -10 -4z"/>
<path d="M3193 755 c0 -8 4 -12 9 -9 5 3 6 10 3 15 -9 13 -12 11 -12 -6z"/>
<path d="M3091 721 c-8 -14 -7 -20 2 -24 7 -3 13 5 13 19 2 29 -2 30 -15 5z"/>
<path d="M3146 708 c3 -5 10 -6 15 -3 13 9 11 12 -6 12 -8 0 -12 -4 -9 -9z"/>
<path d="M3074 664 c1 -8 4 -15 7 -16 2 -2 3 -1 2 1 -2 2 2 9 7 16 7 8 5 12
-4 12 -8 0 -13 -6 -12 -13z"/>
<path d="M3119 663 c-13 -16 -12 -17 4 -4 16 13 21 21 13 21 -2 0 -10 -8 -17
-17z"/>
<path d="M3036 652 c-2 -4 0 -14 6 -22 8 -12 9 -12 5 2 -3 9 -1 19 6 22 9 3 9
5 0 5 -6 1 -14 -3 -17 -7z"/>
<path d="M3006 632 c-3 -5 1 -9 9 -9 8 0 12 4 9 9 -3 4 -7 8 -9 8 -2 0 -6 -4
-9 -8z"/>
<path d="M2917 593 c-11 -11 -8 -21 9 -27 13 -5 14 -4 6 7 -7 8 -9 17 -5 20 3
4 4 7 1 7 -2 0 -8 -3 -11 -7z"/>
<path d="M2954 588 c-4 -5 -3 -12 0 -15 3 -4 6 -1 6 6 0 7 4 10 9 6 5 -3 12
-2 15 3 3 5 -2 9 -10 9 -8 0 -17 -4 -20 -9z"/>
<path d="M2890 552 c0 -5 7 -9 15 -9 8 0 12 4 9 9 -3 4 -9 8 -15 8 -5 0 -9 -4
-9 -8z"/>
<path d="M2827 539 c-14 -8 -16 -14 -6 -25 6 -8 17 -14 23 -14 6 0 3 5 -7 11
-18 10 -18 11 0 25 21 16 16 18 -10 3z"/>
<path d="M2855 530 c-3 -6 1 -7 9 -4 18 7 21 14 7 14 -6 0 -13 -4 -16 -10z"/>
<path d="M2780 510 c-9 -6 -10 -10 -3 -10 6 0 15 5 18 10 8 12 4 12 -15 0z"/>
<path d="M2795 491 c-3 -5 -2 -12 3 -15 5 -3 9 1 9 9 0 17 -3 19 -12 6z"/>
<path d="M2696 463 c-6 -14 -5 -15 5 -6 7 7 10 15 7 18 -3 3 -9 -2 -12 -12z"/>
<path d="M2836 468 c3 -5 10 -6 15 -3 13 9 11 12 -6 12 -8 0 -12 -4 -9 -9z"/>
<path d="M2473 365 c0 -8 4 -12 9 -9 4 3 8 9 8 15 0 5 -4 9 -8 9 -5 0 -9 -7
-9 -15z"/>
<path d="M2356 343 c-6 -14 -5 -15 5 -6 7 7 10 15 7 18 -3 3 -9 -2 -12 -12z"/>
<path d="M2413 335 c0 -8 4 -12 9 -9 5 3 6 10 3 15 -9 13 -12 11 -12 -6z"/>
<path d="M2256 331 c-3 -5 1 -14 8 -20 10 -9 16 -9 21 -1 4 6 1 9 -7 8 -7 -2
-12 3 -10 10 2 14 -4 16 -12 3z"/>
<path d="M1815 319 c-4 -6 -5 -12 -2 -15 2 -3 7 2 10 11 7 17 1 20 -8 4z"/>
<path d="M1873 305 c0 -8 4 -12 9 -9 5 3 6 10 3 15 -9 13 -12 11 -12 -6z"/>
<path d="M1976 308 c3 -5 10 -6 15 -3 13 9 11 12 -6 12 -8 0 -12 -4 -9 -9z"/>
<path d="M2050 308 c0 -6 3 -8 7 -5 3 4 13 1 22 -6 14 -11 14 -10 2 6 -15 20
-31 22 -31 5z"/>
<path d="M1935 290 c-3 -5 -1 -10 4 -10 6 0 11 5 11 10 0 6 -2 10 -4 10 -3 0
-8 -4 -11 -10z"/>
</g>
</svg>
